<?xml version="1.0" encoding="utf-8"?>
<svg id="svg2" viewBox="0 0 500 670" xmlns="http://www.w3.org/2000/svg">
  <desc>Source: openclipart.org/detail/209545</desc>
  <path d="M 200.273 222.577 C 189.059 222.577 179.633 231.177 178.27 242.033 C 179.588 242.078 180.839 242.301 182.023 242.659 C 183.051 233.456 190.757 226.375 200.273 226.375 C 210.459 226.375 218.634 234.573 218.656 244.758 C 218.679 254.967 210.481 263.164 200.295 263.164 C 197.079 263.164 194.085 262.338 191.494 260.886 C 191.092 262.115 190.534 263.231 189.841 264.259 C 192.968 265.979 196.542 266.939 200.295 266.939 C 212.402 266.939 222.454 256.888 222.454 244.758 C 222.454 232.651 212.38 222.577 200.273 222.577 Z M 200.25 234.64 C 201.457 234.64 202.44 233.634 202.44 232.45 C 202.44 231.222 201.457 230.261 200.25 230.261 C 199.044 230.261 198.061 231.222 198.061 232.45 C 198.061 233.634 199.044 234.64 200.25 234.64 Z M 206.684 236.628 C 207.89 236.628 208.873 235.622 208.873 234.416 C 208.873 233.21 207.89 232.205 206.684 232.205 C 205.477 232.205 204.495 233.21 204.495 234.416 C 204.495 235.622 205.477 236.628 206.684 236.628 Z M 193.527 236.628 C 194.778 236.628 195.716 235.645 195.716 234.416 C 195.716 233.21 194.733 232.227 193.527 232.227 C 192.321 232.227 191.338 233.21 191.338 234.416 C 191.338 235.622 192.321 236.628 193.527 236.628 Z M 189.126 241.341 C 190.333 241.341 191.315 240.358 191.315 239.152 C 191.315 237.923 190.333 236.94 189.126 236.94 C 187.92 236.94 186.937 237.923 186.937 239.152 C 186.937 240.358 187.92 241.341 189.126 241.341 Z M 211.084 241.363 C 212.29 241.363 213.273 240.38 213.273 239.174 C 213.273 237.945 212.29 236.963 211.084 236.963 C 209.878 236.963 208.895 237.945 208.895 239.174 C 208.895 240.38 209.878 241.363 211.084 241.363 Z M 200.25 258.34 C 202.216 258.34 203.802 256.754 203.802 254.766 C 203.802 253.336 202.953 252.107 201.725 251.549 L 201.725 241.095 C 201.725 240.246 201.055 239.576 200.25 239.576 C 199.446 239.576 198.776 240.246 198.776 241.095 L 198.776 251.549 C 197.548 252.107 196.699 253.336 196.699 254.766 C 196.699 256.754 198.262 258.34 200.25 258.34 Z M 177.801 267.788 C 184.033 267.788 189.149 262.695 189.149 256.441 C 189.149 250.231 184.033 245.093 177.801 245.093 C 171.592 245.093 166.454 250.231 166.454 256.441 C 166.454 262.695 171.592 267.788 177.801 267.788 Z M 172.061 257.803 C 171.323 257.803 170.698 257.156 170.698 256.441 C 170.698 255.726 171.323 255.078 172.061 255.078 L 183.542 255.078 C 184.302 255.078 184.927 255.726 184.927 256.441 C 184.927 257.156 184.302 257.803 183.542 257.803 L 172.061 257.803 Z"/>
  <path d="M 149.299 169.555 C 138.085 169.555 128.659 178.155 127.296 189.011 C 128.614 189.056 129.865 189.279 131.049 189.637 C 132.077 180.434 139.783 173.353 149.299 173.353 C 159.485 173.353 167.66 181.551 167.682 191.736 C 167.705 201.945 159.507 210.142 149.321 210.142 C 146.105 210.142 143.111 209.316 140.52 207.864 C 140.118 209.093 139.56 210.209 138.867 211.237 C 141.994 212.957 145.568 213.917 149.321 213.917 C 161.428 213.917 171.48 203.866 171.48 191.736 C 171.48 179.629 161.406 169.555 149.299 169.555 Z M 149.276 181.618 C 150.483 181.618 151.466 180.612 151.466 179.428 C 151.466 178.2 150.483 177.239 149.276 177.239 C 148.07 177.239 147.087 178.2 147.087 179.428 C 147.087 180.612 148.07 181.618 149.276 181.618 Z M 155.71 183.606 C 156.916 183.606 157.899 182.6 157.899 181.394 C 157.899 180.188 156.916 179.183 155.71 179.183 C 154.503 179.183 153.521 180.188 153.521 181.394 C 153.521 182.6 154.503 183.606 155.71 183.606 Z M 142.553 183.606 C 143.804 183.606 144.742 182.623 144.742 181.394 C 144.742 180.188 143.759 179.205 142.553 179.205 C 141.347 179.205 140.364 180.188 140.364 181.394 C 140.364 182.6 141.347 183.606 142.553 183.606 Z M 138.152 188.319 C 139.359 188.319 140.341 187.336 140.341 186.13 C 140.341 184.901 139.359 183.918 138.152 183.918 C 136.946 183.918 135.963 184.901 135.963 186.13 C 135.963 187.336 136.946 188.319 138.152 188.319 Z M 160.11 188.341 C 161.316 188.341 162.299 187.358 162.299 186.152 C 162.299 184.923 161.316 183.941 160.11 183.941 C 158.904 183.941 157.921 184.923 157.921 186.152 C 157.921 187.358 158.904 188.341 160.11 188.341 Z M 149.276 205.318 C 151.242 205.318 152.828 203.732 152.828 201.744 C 152.828 200.314 151.979 199.085 150.751 198.527 L 150.751 188.073 C 150.751 187.224 150.081 186.554 149.276 186.554 C 148.472 186.554 147.802 187.224 147.802 188.073 L 147.802 198.527 C 146.574 199.085 145.725 200.314 145.725 201.744 C 145.725 203.732 147.288 205.318 149.276 205.318 Z M 126.827 214.766 C 132.993 214.766 138.175 209.629 138.175 203.419 C 138.175 197.209 133.059 192.071 126.827 192.071 C 120.618 192.071 115.48 197.209 115.48 203.419 C 115.48 209.673 120.618 214.766 126.827 214.766 Z M 126.85 210.79 C 126.068 210.79 125.375 210.254 125.375 209.405 L 125.375 204.781 L 121.109 204.781 C 120.349 204.781 119.724 204.156 119.724 203.419 C 119.724 202.659 120.349 202.034 121.109 202.034 L 125.375 202.034 L 125.375 197.41 C 125.375 196.584 126.068 196.047 126.85 196.047 C 127.609 196.047 128.302 196.584 128.302 197.41 L 128.302 202.034 L 132.568 202.034 C 133.328 202.034 133.931 202.659 133.931 203.419 C 133.931 204.156 133.328 204.781 132.568 204.781 L 128.302 204.781 L 128.302 209.405 C 128.302 210.254 127.609 210.79 126.85 210.79 Z"/>
  <line style="fill: rgb(216, 216, 216); stroke: rgb(0, 0, 0); stroke-width: 4px; stroke-linecap: round;" x1="129.388" y1="262.762" x2="206.252" y2="184.617"/>
</svg>