<?xml version="1.0" encoding="utf-8"?>
<svg id="svg2" viewBox="0 0 500 670" xmlns="http://www.w3.org/2000/svg">
  <desc>Source: openclipart.org/detail/209545</desc>
  <desc>Source: openclipart.org/detail/209545</desc>
  <path d="M 367.622 334.805 C 321.491 334.805 282.716 370.183 277.109 414.84 C 282.531 415.025 287.677 415.943 292.548 417.415 C 296.777 379.558 328.476 350.429 367.622 350.429 C 409.523 350.429 443.152 384.153 443.243 426.05 C 443.337 468.046 409.614 501.766 367.712 501.766 C 354.483 501.766 342.167 498.368 331.508 492.395 C 329.854 497.45 327.559 502.041 324.708 506.27 C 337.572 513.345 352.274 517.295 367.712 517.295 C 417.516 517.295 458.866 475.948 458.866 426.05 C 458.866 376.246 417.426 334.805 367.622 334.805 Z M 367.527 384.428 C 372.492 384.428 376.536 380.29 376.536 375.419 C 376.536 370.368 372.492 366.415 367.527 366.415 C 362.566 366.415 358.522 370.368 358.522 375.419 C 358.522 380.29 362.566 384.428 367.527 384.428 Z M 393.994 392.606 C 398.955 392.606 402.999 388.468 402.999 383.507 C 402.999 378.546 398.955 374.411 393.994 374.411 C 389.029 374.411 384.99 378.546 384.99 383.507 C 384.99 388.468 389.029 392.606 393.994 392.606 Z M 339.871 392.606 C 345.017 392.606 348.876 388.562 348.876 383.507 C 348.876 378.546 344.832 374.502 339.871 374.502 C 334.91 374.502 330.866 378.546 330.866 383.507 C 330.866 388.468 334.91 392.606 339.871 392.606 Z M 321.767 411.994 C 326.732 411.994 330.772 407.95 330.772 402.989 C 330.772 397.933 326.732 393.89 321.767 393.89 C 316.806 393.89 312.762 397.933 312.762 402.989 C 312.762 407.95 316.806 411.994 321.767 411.994 Z M 412.094 412.084 C 417.055 412.084 421.099 408.04 421.099 403.079 C 421.099 398.024 417.055 393.984 412.094 393.984 C 407.133 393.984 403.09 398.024 403.09 403.079 C 403.09 408.04 407.133 412.084 412.094 412.084 Z M 367.527 481.921 C 375.615 481.921 382.139 475.397 382.139 467.219 C 382.139 461.337 378.646 456.281 373.595 453.986 L 373.595 410.982 C 373.595 407.489 370.839 404.733 367.527 404.733 C 364.22 404.733 361.464 407.489 361.464 410.982 L 361.464 453.986 C 356.412 456.281 352.92 461.337 352.92 467.219 C 352.92 475.397 359.349 481.921 367.527 481.921 Z M 275.18 520.787 C 300.816 520.787 321.862 499.836 321.862 474.11 C 321.862 448.564 300.816 427.428 275.18 427.428 C 249.638 427.428 228.503 448.564 228.503 474.11 C 228.503 499.836 249.638 520.787 275.18 520.787 Z M 251.568 479.712 C 248.532 479.712 245.961 477.051 245.961 474.11 C 245.961 471.168 248.532 468.503 251.568 468.503 L 298.796 468.503 C 301.923 468.503 304.494 471.168 304.494 474.11 C 304.494 477.051 301.923 479.712 298.796 479.712 L 251.568 479.712 Z" style=""/>
  <path d="M 157.933 116.692 C 111.803 116.692 73.028 152.069 67.421 196.727 C 72.843 196.912 77.989 197.829 82.859 199.302 C 87.088 161.444 118.788 132.316 157.933 132.316 C 199.835 132.316 233.464 166.039 233.554 207.937 C 233.649 249.933 199.925 283.652 158.024 283.652 C 144.794 283.652 132.478 280.254 121.819 274.281 C 120.166 279.337 117.87 283.928 115.02 288.157 C 127.883 295.232 142.585 299.181 158.024 299.181 C 207.827 299.181 249.178 257.835 249.178 207.937 C 249.178 158.133 207.737 116.692 157.933 116.692 Z M 157.839 166.315 C 162.804 166.315 166.847 162.176 166.847 157.306 C 166.847 152.254 162.804 148.301 157.839 148.301 C 152.877 148.301 148.834 152.254 148.834 157.306 C 148.834 162.176 152.877 166.315 157.839 166.315 Z M 184.306 174.493 C 189.267 174.493 193.31 170.354 193.31 165.393 C 193.31 160.432 189.267 156.298 184.306 156.298 C 179.341 156.298 175.301 160.432 175.301 165.393 C 175.301 170.354 179.341 174.493 184.306 174.493 Z M 130.183 174.493 C 135.329 174.493 139.187 170.449 139.187 165.393 C 139.187 160.432 135.144 156.389 130.183 156.389 C 125.221 156.389 121.178 160.432 121.178 165.393 C 121.178 170.354 125.221 174.493 130.183 174.493 Z M 112.078 193.88 C 117.044 193.88 121.083 189.837 121.083 184.876 C 121.083 179.82 117.044 175.776 112.078 175.776 C 107.117 175.776 103.074 179.82 103.074 184.876 C 103.074 189.837 107.117 193.88 112.078 193.88 Z M 202.406 193.971 C 207.367 193.971 211.41 189.927 211.41 184.966 C 211.41 179.91 207.367 175.871 202.406 175.871 C 197.445 175.871 193.401 179.91 193.401 184.966 C 193.401 189.927 197.445 193.971 202.406 193.971 Z M 157.839 263.808 C 165.926 263.808 172.45 257.284 172.45 249.106 C 172.45 243.223 168.958 238.168 163.906 235.872 L 163.906 192.868 C 163.906 189.376 161.15 186.62 157.839 186.62 C 154.531 186.62 151.775 189.376 151.775 192.868 L 151.775 235.872 C 146.723 238.168 143.231 243.223 143.231 249.106 C 143.231 257.284 149.661 263.808 157.839 263.808 Z M 65.491 302.674 C 90.856 302.674 112.173 281.542 112.173 255.996 C 112.173 230.451 91.128 209.315 65.491 209.315 C 39.95 209.315 18.814 230.451 18.814 255.996 C 18.814 281.723 39.95 302.674 65.491 302.674 Z M 65.586 286.318 C 62.369 286.318 59.518 284.113 59.518 280.62 L 59.518 261.599 L 41.97 261.599 C 38.843 261.599 36.272 259.028 36.272 255.996 C 36.272 252.87 38.843 250.299 41.97 250.299 L 59.518 250.299 L 59.518 231.277 C 59.518 227.88 62.369 225.67 65.586 225.67 C 68.708 225.67 71.559 227.88 71.559 231.277 L 71.559 250.299 L 89.108 250.299 C 92.234 250.299 94.715 252.87 94.715 255.996 C 94.715 259.028 92.234 261.599 89.108 261.599 L 71.559 261.599 L 71.559 280.62 C 71.559 284.113 68.708 286.318 65.586 286.318 Z" style=""/>
  <line style="fill: rgb(216, 216, 216); stroke: rgb(0, 0, 0); stroke-linecap: round; stroke-width: 15px;" x1="76.026" y1="500.112" x2="392.217" y2="178.652"/>
</svg>